<svg id="Layer_1" data-name="Layer 1" xmlns="http://www.w3.org/2000/svg" viewBox="0 0 402 120">
  <defs>
    <style>
      .cls-1 {
        fill: #fff;
      }

      .cls-2 {
        fill: #ffebd4;
      }

      .cls-3, .cls-4 {
        fill: #e8e8e8;
      }

      .cls-3, .cls-5 {
        stroke: #000;
        stroke-miterlimit: 10;
      }

      .cls-5 {
        fill: none;
      }
    </style>
  </defs>
  <title>cat</title>
  <g>
    <path d="M120.73,49v8.3h-3.19V65.4H108V46.21a12.28,12.28,0,0,1,3.48-9,11.73,11.73,0,0,1,8.75-3.54,12.07,12.07,0,0,1,9.73,4.82L122.09,44a2.36,2.36,0,0,0-2.33-1.77c-1.48,0-2.22,1-2.22,2.95V49Z"/>
    <path d="M140,34.48V65.4h-8.81V34.48Z"/>
    <path d="M154,42.81V65.4h-8.81V42.81Zm-4.38-10.08a4.39,4.39,0,0,1,3.1,1.22A3.77,3.77,0,0,1,154,36.81a3.73,3.73,0,0,1-1.24,2.9,5,5,0,0,1-6.34,0,3.91,3.91,0,0,1,.07-5.76A4.41,4.41,0,0,1,149.61,32.73Z"/>
    <path d="M167.47,73.76h-8.81V54.91a12.42,12.42,0,0,1,2.83-8.45,11.55,11.55,0,0,1,4.13-3,12.6,12.6,0,0,1,5.15-1.11,12.41,12.41,0,0,1,8.86,3.4,11,11,0,0,1,3.6,8.34,11.18,11.18,0,0,1-3.58,8.29,11.75,11.75,0,0,1-8.48,3.49c-.53,0-1.32-.06-2.36-.16V56.38a3.56,3.56,0,0,0,2.17.84,3.23,3.23,0,0,0,2.35-1,3.15,3.15,0,0,0,1-2.31,3,3,0,0,0-1-2.28,3.42,3.42,0,0,0-2.43-.94q-3.39,0-3.39,4.51Z"/>
    <path d="M208,42.81V65.4h-8.81V42.81Zm-4.38-10.08a4.39,4.39,0,0,1,3.1,1.22,3.89,3.89,0,0,1,.07,5.76,5,5,0,0,1-6.34,0,3.91,3.91,0,0,1,.07-5.76A4.41,4.41,0,0,1,203.59,32.73Z"/>
    <path d="M221,34.48v8.65h4v8.95h-4a5.81,5.81,0,0,0,.89,3.72c.59.68,1.66,1,3.24,1v8.91l-1,0a12.26,12.26,0,0,1-5.64-1.34,11.21,11.21,0,0,1-4.25-3.62,13.36,13.36,0,0,1-2-7.75V34.48Z"/>
    <path d="M254.41,56.93V65.7a12.12,12.12,0,0,1-2,.18,12.3,12.3,0,0,1-8.83-3.36,11.63,11.63,0,0,1,0-16.74,12.1,12.1,0,0,1,8.69-3.42q5.7,0,9,3.21t3.29,8.75V65.4h-8.81V54.93a4.22,4.22,0,0,0-.91-2.85A3,3,0,0,0,252.43,51a3.35,3.35,0,0,0-2.4,1,3.25,3.25,0,0,0-.09,4.62,3.16,3.16,0,0,0,2.33.91A4.13,4.13,0,0,0,254.41,56.93Z"/>
    <path d="M278,73.76h-8.81V54.91A12.42,12.42,0,0,1,272,46.46a11.55,11.55,0,0,1,4.13-3,12.6,12.6,0,0,1,5.15-1.11,12.41,12.41,0,0,1,8.86,3.4,11,11,0,0,1,3.6,8.34,11.18,11.18,0,0,1-3.58,8.29,11.77,11.77,0,0,1-8.48,3.49c-.53,0-1.32-.06-2.36-.16V56.38a3.56,3.56,0,0,0,2.17.84,3.23,3.23,0,0,0,2.35-1,3.15,3.15,0,0,0,1-2.31,3,3,0,0,0-1-2.28,3.42,3.42,0,0,0-2.43-.94q-3.39,0-3.39,4.51Z"/>
    <path d="M305.94,73.76h-8.81V54.91A12.42,12.42,0,0,1,300,46.46a11.55,11.55,0,0,1,4.13-3,12.6,12.6,0,0,1,5.15-1.11,12.41,12.41,0,0,1,8.86,3.4,11,11,0,0,1,3.6,8.34,11.18,11.18,0,0,1-3.58,8.29,11.77,11.77,0,0,1-8.48,3.49c-.53,0-1.32-.06-2.36-.16V56.38a3.56,3.56,0,0,0,2.17.84,3.23,3.23,0,0,0,2.35-1,3.15,3.15,0,0,0,1-2.31,3,3,0,0,0-1-2.28,3.42,3.42,0,0,0-2.43-.94q-3.39,0-3.39,4.51Z"/>
  </g>
  <g id="Cat_1" data-name="Cat 1">
    <path class="cls-1" d="M79,56s9,19,2.07,23.85l.25.11a9,9,0,0,1-1.51.54h0a8.65,8.65,0,0,1-3.45.44h-.1l-.53,0c-.42,0-.87-.1-1.34-.18,0,0-.39.12-1.09.29a5.59,5.59,0,0,1-2.08-.74h0a5.19,5.19,0,0,1-1-.84c-.82-.17-1.65-.33-2.48-.48l-.6-.1c-1.16-.2-2.33-.37-3.51-.5-2-.22-4.07-.21-6.1-.36l-.36,0a20.32,20.32,0,0,1-2.6-.35l-.27,0a11.46,11.46,0,0,1-3.15-1.15c-4-2.19-5.25-6.48-4.74-11.47.4-3.89,1.85-6.5,4-8.19a9.83,9.83,0,0,1-3.21-3.09,8,8,0,0,1-1.27-5.32c-2.73-1.4-5.45-3.62-6.69-6.28a6.7,6.7,0,0,1,.36-6.56,5.12,5.12,0,0,1,.75-1A24.6,24.6,0,0,0,36,29.06a4.68,4.68,0,0,1-1.13-1.31h0c0-.13.05-.26.08-.39a.18.18,0,0,1,0-.05c.08-.52.82-4.75,3.24-6.52a2.26,2.26,0,0,1,2.93-.39s0,.12,0,.34c2.91,1.74,6.21,7.39,6.21,7.39s13.14-7.73,30.14-.77c0,0,10-17.78,12.37,4.63a42.52,42.52,0,0,1,.08,8.92,28.78,28.78,0,0,1-.7,3.92C86.54,55.06,79,56,79,56Z"/>
    <path class="cls-2" d="M95.2,61.36c-10,1.54-11.31,7-11.31,7L82,61.61c9.22-9,14.74-2.57,14.74-2.57S99.07,62.13,95.2,61.36Z"/>
    <path class="cls-3" d="M95.2,61.36c-10,1.54-11.31,7-11.31,7L82,61.61c9.22-9,14.74-2.57,14.74-2.57S99.07,62.13,95.2,61.36Z"/>
    <path class="cls-4" d="M69.58,80.81l-.9.12c-3.36.5-7.05,1.38-8.79,1.81l-1,.26a40.87,40.87,0,0,1-7.31-1.16l-.38-.1-.88-.24-.44-.14a18.35,18.35,0,0,1-7.24-3.9s0,0,0,0c-3.8-3.7-4.45-9.82,4.69-19.94h-.15a14.19,14.19,0,0,1-7.62-3.89l-.17-.16a17.3,17.3,0,0,1-4.25-7.32,25.86,25.86,0,0,1-1-4.62,46.07,46.07,0,0,1,.72-13.73c0-.13,0-.27.07-.4s1.18-4.72,3.25-6.57a2.26,2.26,0,0,1,2.93-.39s0,.12,0,.34c-.15,3.76-.87,37.54,23.21,37.54,0,0-9.27,2.31-12.36,0,0,0-4.61,12.5,2.57,19.29a12.24,12.24,0,0,0,1.75,1.38l.31.2.9-1.2L58.87,76l7.74,1.41.76.14a6.67,6.67,0,0,0,.29,1.31C68,79.79,68.52,80.8,69.58,80.81Z"/>
    <path class="cls-4" d="M81.29,79.91a9,9,0,0,1-1.51.54h0a12.44,12.44,0,0,1-3.45.44h-.1l-.53,0c-.42,0-.87-.1-1.34-.18a9.94,9.94,0,0,0-2.46-.09c-.43,0-.89.06-1.36.11h0l-.48,0a3.22,3.22,0,0,0,1.13-.53l.07,0a0,0,0,0,1,0,0,14.39,14.39,0,0,0,3.09-3.34l6.71,3Z"/>
    <path class="cls-5" d="M89.87,40.9a28.78,28.78,0,0,1-.7,3.92C86.54,55.06,79,56,79,56s9,19,2.07,23.85a5.35,5.35,0,0,1-1.26.65h0a8.65,8.65,0,0,1-3.45.44h-.1l-.53,0c-.42,0-.87-.1-1.34-.18,0,0-.39.12-1.09.29a57.52,57.52,0,0,1-13.35,1.77,33.65,33.65,0,0,1-8.33-.9l-.38-.1c-.3-.07-.59-.15-.88-.24l-.44-.14c-.62-.2-1.22-.43-1.81-.68a20.55,20.55,0,0,1-5.43-3.22s0,0,0,0c-5.17-4.5-3.86-10.77,4.69-19.94h-.15l-.18,0a15.87,15.87,0,0,1-7.44-3.86l-.17-.16a17.31,17.31,0,0,1-4.47-7.25,23.4,23.4,0,0,1-1-4.62,41.68,41.68,0,0,1,1-13.81c0-.13.05-.26.08-.39a.18.18,0,0,1,0-.05c.08-.52.82-4.75,3.24-6.52a4,4,0,0,1,.62-.39,2.34,2.34,0,0,1,2.29.34c2.91,1.74,6.21,7.39,6.21,7.39s13.14-7.73,30.14-.77c0,0,10-17.78,12.37,4.63A42.52,42.52,0,0,1,89.87,40.9Z"/>
    <circle cx="55.01" cy="40.49" r="2.32"/>
    <circle cx="74.72" cy="40.1" r="2.32"/>
    <path class="cls-5" d="M59.26,44.74s3.86.77,6.18-.77c0,0,4.25,1.93,5.8.38"/>
    <path class="cls-5" d="M69.69,45.13S70.47,49,65.06,49c0,0-3.87.77-3.87-3.86"/>
    <path class="cls-5" d="M85.15,42.81a8.21,8.21,0,0,1,4.72-1.91,13.2,13.2,0,0,1,5.1.52,17.12,17.12,0,0,1,1.78.61"/>
    <path class="cls-5" d="M83.61,45.9s3.86-3.09,10.82.77"/>
    <path class="cls-5" d="M29.5,43.58s6.18-4.64,10.82-.77"/>
    <path class="cls-5" d="M30.27,49.76s2.32-5.41,11.6-3.86"/>
    <path class="cls-5" d="M50.76,74.88s.77,5.41,3.09,5.41,4.64-4.63,4.64-4.63"/>
    <path class="cls-5" d="M66.22,75.66s.77,5.41,3.09,5.41,4.63-4.64,4.63-4.64"/>
  </g>
</svg>
